<svg width="370" height="356" viewBox="0 0 370 356" fill="none" xmlns="http://www.w3.org/2000/svg">
<path opacity="0.5" d="M262.854 226.237C241.668 277.868 204.068 298.702 150.053 288.741C96.0371 278.78 53.7368 252.964 23.1514 211.295C-7.43394 169.626 -7.71454 127.326 22.3096 84.3943C52.3338 41.4626 95.3356 14.3146 151.315 2.95034C207.295 -8.41394 245.176 13.0519 264.958 67.3479C284.74 121.644 284.039 174.607 262.854 226.237Z" fill="#FDBCD2"/>
<path opacity="0.5" d="M203.643 192.135C209.13 154.421 230.556 140.878 267.922 151.504C305.287 162.13 333.637 180.987 352.973 208.074C372.309 235.162 374.965 266.778 360.943 302.924C346.92 339.07 319.31 356.62 278.112 355.575C236.914 354.53 212.832 336.457 205.864 301.356C198.896 266.256 198.156 229.849 203.643 192.135Z" fill="#FDBCD2"/>
</svg>
