<svg width="36" height="47" viewBox="0 0 36 47" fill="none" xmlns="http://www.w3.org/2000/svg">
<path fill-rule="evenodd" clip-rule="evenodd" d="M18 23.25C18 20.0744 20.5744 17.5 23.75 17.5C26.9256 17.5 29.5 20.0744 29.5 23.25C29.5 26.4256 26.9256 29 23.75 29C20.5744 29 18 26.4256 18 23.25Z" fill="#1ABCFE"/>
<path fill-rule="evenodd" clip-rule="evenodd" d="M6.5 34.75C6.5 31.5744 9.07436 29 12.25 29H18V34.75C18 37.9256 15.4256 40.5 12.25 40.5C9.07436 40.5 6.5 37.9256 6.5 34.75Z" fill="#0ACF83"/>
<path fill-rule="evenodd" clip-rule="evenodd" d="M18 6V17.5H23.75C26.9256 17.5 29.5 14.9256 29.5 11.75C29.5 8.57436 26.9256 6 23.75 6H18Z" fill="#FF7262"/>
<path fill-rule="evenodd" clip-rule="evenodd" d="M6.5 11.75C6.5 14.9256 9.07436 17.5 12.25 17.5H18V6H12.25C9.07436 6 6.5 8.57436 6.5 11.75Z" fill="#F24E1E"/>
<path fill-rule="evenodd" clip-rule="evenodd" d="M6.5 23.25C6.5 26.4256 9.07436 29 12.25 29H18V17.5H12.25C9.07436 17.5 6.5 20.0744 6.5 23.25Z" fill="#A259FF"/>
</svg>
