<svg width="19" height="60" viewBox="0 0 19 60" fill="none" xmlns="http://www.w3.org/2000/svg">
<path d="M17.8129 0.361557L18.786 6.68919L17.3265 9.12292H17.5697L15.867 13.9904L10.7583 12.0434L9.0556 22.2651L12.7045 23.9687L9.542 26.159L9.2988 30.2964L15.3803 28.3494L16.3534 34.4338L11.9746 59.2578L10.2719 55.3638L0.784668 32.4867L4.19038 27.3759L3.21728 26.4024L5.89309 19.1012L7.35289 7.41936L8.8124 3.28199H13.4344L14.4072 0.60487L17.8129 0.361557Z" fill="#444CF7"/>
<path d="M15.8671 13.9904L16.8399 23.7254L15.3804 28.3495L9.29887 30.2965L9.54207 26.1591L12.7046 23.9687L9.05566 22.2652L10.7584 12.0435L15.8671 13.9904Z" fill="#444CF7"/>
</svg>
